<svg width="25" height="24" viewBox="0 0 25 24" fill="none" xmlns="http://www.w3.org/2000/svg">
<path d="M14.6315 14.0802L16.3149 11.1703C16.4231 10.99 16.375 10.7615 16.2187 10.6293L14.4391 9.23447C14.4752 8.96994 14.4992 8.69339 14.4992 8.41683C14.4992 8.14028 14.4752 7.86373 14.4391 7.58718L16.2187 6.19239C16.375 6.06012 16.4231 5.83166 16.3149 5.6513L14.6315 2.74148C14.5233 2.56112 14.3069 2.48898 14.1145 2.56112L12.0223 3.40281C11.5894 3.06613 11.1205 2.78958 10.6035 2.57315L10.2908 0.348697C10.2548 0.156313 10.0744 0 9.86999 0H6.50325C6.29884 0 6.11848 0.156313 6.08241 0.360721L5.76979 2.58517C5.26478 2.8016 4.78381 3.07816 4.35095 3.41483L2.25876 2.57315C2.06638 2.501 1.84995 2.57315 1.74173 2.75351L0.0583629 5.66333C-0.0498535 5.84369 -0.00175714 6.07214 0.154555 6.20441L1.93411 7.5992C1.89804 7.86373 1.87399 8.14028 1.87399 8.41683C1.87399 8.69339 1.89804 8.96994 1.93411 9.24649L0.154555 10.6413C-0.00175714 10.7735 -0.0498535 11.002 0.0583629 11.1824L1.74173 14.0922C1.84995 14.2725 2.06638 14.3447 2.25876 14.2725L4.35095 13.4309C4.78381 13.7675 5.25275 14.0441 5.76979 14.2605L6.08241 16.485C6.11848 16.6774 6.29884 16.8337 6.50325 16.8337H9.86999C10.0744 16.8337 10.2548 16.6774 10.2908 16.4729L10.6035 14.2485C11.1085 14.0321 11.5894 13.7555 12.0223 13.4188L14.1145 14.2605C14.3069 14.3327 14.5233 14.2605 14.6315 14.0802ZM8.18662 10.8216C6.86397 10.8216 5.78181 9.73948 5.78181 8.41683C5.78181 7.09419 6.86397 6.01202 8.18662 6.01202C9.50927 6.01202 10.5914 7.09419 10.5914 8.41683C10.5914 9.73948 9.50927 10.8216 8.18662 10.8216Z" fill="#22C4AB"/>
<path d="M23.9509 20.0442L22.7966 19.1544C22.8207 18.9861 22.8447 18.8057 22.8447 18.6254C22.8447 18.445 22.8327 18.2646 22.7966 18.0963L23.9389 17.2065C24.0351 17.1224 24.0712 16.9781 23.999 16.8578L22.9168 14.9941C22.8567 14.8739 22.7124 14.8378 22.5802 14.8739L21.2455 15.4149C20.9689 15.1985 20.6683 15.0181 20.3317 14.8859L20.1273 13.467C20.1152 13.3228 19.995 13.2266 19.8748 13.2266H17.7225C17.5902 13.2266 17.47 13.3228 17.4579 13.455L17.2535 14.8739C16.9289 15.0181 16.6162 15.1865 16.3397 15.4029L15.005 14.8618C14.8848 14.8137 14.7405 14.8618 14.6683 14.9821L13.5862 16.8458C13.5261 16.966 13.5381 17.1103 13.6463 17.1945L14.7886 18.0843C14.7645 18.2526 14.7525 18.433 14.7525 18.6133C14.7525 18.7937 14.7645 18.9741 14.7886 19.1424L13.6463 20.0322C13.5501 20.1163 13.514 20.2606 13.5862 20.3809L14.6683 22.2446C14.7285 22.3648 14.8728 22.4009 15.005 22.3648L16.3397 21.8238C16.6162 22.0402 16.9168 22.2206 17.2535 22.3528L17.4579 23.7717C17.482 23.9039 17.5902 24.0001 17.7225 24.0001H19.8748C20.007 24.0001 20.1273 23.9039 20.1393 23.7717L20.3437 22.3528C20.6683 22.2085 20.981 22.0402 21.2455 21.8238L22.5922 22.3648C22.7124 22.4129 22.8567 22.3648 22.9289 22.2446L24.011 20.3809C24.0832 20.2727 24.0471 20.1284 23.9509 20.0442ZM18.7926 20.2366C17.9028 20.2366 17.1693 19.5151 17.1693 18.6133C17.1693 17.7115 17.8908 16.9901 18.7926 16.9901C19.6944 16.9901 20.4158 17.7115 20.4158 18.6133C20.4158 19.5151 19.6824 20.2366 18.7926 20.2366Z" fill="#22C4AB"/>
</svg>
